<?xml version="1.0" encoding="UTF-8"?>
<svg xmlns="http://www.w3.org/2000/svg" width="1440" height="900" viewBox="0 0 1440 900" role="img" aria-label="The Codex Ultracode workflows panel with phases and workers">
  <rect width="1440" height="900" fill="#d9e2ef"/>
  <rect x="80" y="48" width="1280" height="804" rx="16" fill="#1c1c1c"/>
  <rect x="80" y="48" width="1280" height="44" rx="16" fill="#2a2a2a"/>
  <rect x="80" y="76" width="1280" height="16" fill="#2a2a2a"/>
  <circle cx="108" cy="70" r="7" fill="#ff5f57"/>
  <circle cx="132" cy="70" r="7" fill="#febc2e"/>
  <circle cx="156" cy="70" r="7" fill="#28c840"/>
  <text x="720" y="75" text-anchor="middle" fill="#cfcfcf" font-family="ui-monospace, SFMono-Regular, Menlo, monospace" font-size="15">codex &#183; workflows</text>
  <line x1="80" y1="108" x2="1360" y2="108" stroke="#5b8def" stroke-width="2"/>
  <text x="112" y="156" fill="#f4f4f4" font-family="ui-monospace, SFMono-Regular, Menlo, monospace" font-size="22">fix-fixture</text>
  <text x="112" y="186" fill="#bdbdbd" font-family="ui-monospace, SFMono-Regular, Menlo, monospace" font-size="15">Fix three source files in parallel, then independently test and review the fixture.</text>
  <text x="112" y="210" fill="#8f8f8f" font-family="ui-monospace, SFMono-Regular, Menlo, monospace" font-size="15">3/4 agents &#183; 40s &#183; running</text>
  <rect x="112" y="236" width="360" height="36" rx="4" fill="#2a2a2a"/>
  <text x="128" y="260" fill="#cfcfcf" font-family="ui-monospace, SFMono-Regular, Menlo, monospace" font-size="15">Phases</text>
  <rect x="472" y="236" width="776" height="36" rx="4" fill="#2a2a2a"/>
  <text x="492" y="260" fill="#cfcfcf" font-family="ui-monospace, SFMono-Regular, Menlo, monospace" font-size="15">Parallel source fixes &#183; 3 agents</text>
  <line x1="472" y1="236" x2="472" y2="760" stroke="#3a3a3a"/>
  <rect x="112" y="288" width="360" height="40" rx="4" fill="#243024"/>
  <text x="128" y="314" fill="#9ad07a" font-family="ui-monospace, SFMono-Regular, Menlo, monospace" font-size="16">1  Parallel source fixes  2/3</text>
  <text x="128" y="362" fill="#d0d0d0" font-family="ui-monospace, SFMono-Regular, Menlo, monospace" font-size="16">2  Test</text>
  <text x="128" y="402" fill="#8f8f8f" font-family="ui-monospace, SFMono-Regular, Menlo, monospace" font-size="16">3  Review</text>
  <text x="492" y="314" fill="#9ad07a" font-family="ui-monospace, SFMono-Regular, Menlo, monospace" font-size="16">&#10004;  Fix src/add.mjs       gpt-5.6-luna &#183; 14.3k tok  23s</text>
  <rect x="472" y="332" width="776" height="40" rx="4" fill="#243024"/>
  <text x="492" y="358" fill="#f0c674" font-family="ui-monospace, SFMono-Regular, Menlo, monospace" font-size="16">&#10095; &#10045;  Fix src/multiply.mjs  gpt-5.6-luna            12s</text>
  <text x="492" y="402" fill="#8f8f8f" font-family="ui-monospace, SFMono-Regular, Menlo, monospace" font-size="16">&#9676;  Fix src/greet.mjs     gpt-5.6-luna</text>
  <text x="112" y="800" fill="#8f8f8f" font-family="ui-monospace, SFMono-Regular, Menlo, monospace" font-size="14">&#8593;&#8595; select &#183; f filter &#183; p pause &#183; x stop &#183; esc back &#183; s save</text>
</svg>
